<mxfile host="Electron" modified="2025-07-28T02:52:50.017Z" agent="Mozilla/5.0 (Windows NT 10.0; Win64; x64) AppleWebKit/537.36 (KHTML, like Gecko) draw.io/22.1.2 Chrome/114.0.5735.289 Electron/25.9.4 Safari/537.36" etag="ZBVPLuLps_VWn5duJz9N" version="22.1.2" type="device">
  <diagram name="PÃ¡gina-1" id="tTguId8WDtWh8ywJfU5a">
    <mxGraphModel dx="1434" dy="836" grid="1" gridSize="10" guides="1" tooltips="1" connect="1" arrows="1" fold="1" page="1" pageScale="1" pageWidth="1169" pageHeight="827" math="0" shadow="0">
      <root>
        <mxCell id="0" />
        <mxCell id="1" parent="0" />
        <mxCell id="TJLMAPSp0Nu7winy3CZN-2" value="API Gateway" style="rounded=0;whiteSpace=wrap;html=1;sketch=1;curveFitting=1;jiggle=2;verticalAlign=top;fontSize=20;fontStyle=1;dashed=1;dashPattern=12 12;fillColor=#f8cecc;strokeColor=#b85450;" parent="1" vertex="1">
          <mxGeometry x="400" y="110" width="160" height="450" as="geometry" />
        </mxCell>
        <mxCell id="TJLMAPSp0Nu7winy3CZN-3" value="&amp;nbsp; &amp;nbsp;Kubernetes" style="rounded=0;whiteSpace=wrap;html=1;sketch=1;curveFitting=1;jiggle=2;verticalAlign=top;align=left;fontSize=20;fontStyle=1;" parent="1" vertex="1">
          <mxGeometry x="640" y="120" width="320" height="440" as="geometry" />
        </mxCell>
        <mxCell id="TJLMAPSp0Nu7winy3CZN-5" value="Catalog.Api" style="rounded=1;whiteSpace=wrap;html=1;sketch=1;curveFitting=1;jiggle=2;fillColor=#dae8fc;strokeColor=#6c8ebf;" parent="1" vertex="1">
          <mxGeometry x="680" y="185" width="150" height="60" as="geometry" />
        </mxCell>
        <mxCell id="TJLMAPSp0Nu7winy3CZN-6" value="MongoDb" style="shape=cylinder3;whiteSpace=wrap;html=1;boundedLbl=1;backgroundOutline=1;size=15;fillColor=#dae8fc;strokeColor=#6c8ebf;sketch=1;curveFitting=1;jiggle=2;" parent="1" vertex="1">
          <mxGeometry x="880" y="245" width="50" height="60" as="geometry" />
        </mxCell>
        <mxCell id="TJLMAPSp0Nu7winy3CZN-7" value="RabbitMQ" style="shape=cylinder3;whiteSpace=wrap;html=1;boundedLbl=1;backgroundOutline=1;size=15;sketch=1;curveFitting=1;jiggle=2;horizontal=0;rotation=-180;fontSize=20;fontStyle=1;fillColor=#ffe6cc;strokeColor=#d79b00;" parent="1" vertex="1">
          <mxGeometry x="1010" y="120" width="60" height="440" as="geometry" />
        </mxCell>
        <mxCell id="TJLMAPSp0Nu7winy3CZN-21" style="edgeStyle=orthogonalEdgeStyle;rounded=0;orthogonalLoop=1;jettySize=auto;html=1;exitX=0.5;exitY=1;exitDx=0;exitDy=0;entryX=0;entryY=0.5;entryDx=0;entryDy=0;entryPerimeter=0;" parent="1" source="TJLMAPSp0Nu7winy3CZN-8" target="TJLMAPSp0Nu7winy3CZN-9" edge="1">
          <mxGeometry relative="1" as="geometry" />
        </mxCell>
        <mxCell id="TJLMAPSp0Nu7winy3CZN-8" value="Order.Api" style="rounded=1;whiteSpace=wrap;html=1;sketch=1;curveFitting=1;jiggle=2;fillColor=#fff2cc;strokeColor=#d6b656;" parent="1" vertex="1">
          <mxGeometry x="680" y="305" width="150" height="60" as="geometry" />
        </mxCell>
        <mxCell id="TJLMAPSp0Nu7winy3CZN-9" value="SQL Server" style="shape=cylinder3;whiteSpace=wrap;html=1;boundedLbl=1;backgroundOutline=1;size=15;fillColor=#dae8fc;strokeColor=#6c8ebf;sketch=1;curveFitting=1;jiggle=2;" parent="1" vertex="1">
          <mxGeometry x="880" y="365" width="50" height="60" as="geometry" />
        </mxCell>
        <mxCell id="TJLMAPSp0Nu7winy3CZN-10" value="Authentication" style="rounded=1;whiteSpace=wrap;html=1;sketch=1;curveFitting=1;jiggle=2;" parent="1" vertex="1">
          <mxGeometry x="420" y="160" width="120" height="60" as="geometry" />
        </mxCell>
        <mxCell id="TJLMAPSp0Nu7winy3CZN-11" value="Rate Limiting" style="rounded=1;whiteSpace=wrap;html=1;sketch=1;curveFitting=1;jiggle=2;" parent="1" vertex="1">
          <mxGeometry x="420" y="260" width="120" height="60" as="geometry" />
        </mxCell>
        <mxCell id="TJLMAPSp0Nu7winy3CZN-12" value="Load Balancing" style="rounded=1;whiteSpace=wrap;html=1;sketch=1;curveFitting=1;jiggle=2;" parent="1" vertex="1">
          <mxGeometry x="420" y="360" width="120" height="60" as="geometry" />
        </mxCell>
        <mxCell id="TJLMAPSp0Nu7winy3CZN-17" style="edgeStyle=orthogonalEdgeStyle;rounded=0;orthogonalLoop=1;jettySize=auto;html=1;entryX=0;entryY=0.5;entryDx=0;entryDy=0;" parent="1" source="TJLMAPSp0Nu7winy3CZN-16" target="TJLMAPSp0Nu7winy3CZN-2" edge="1">
          <mxGeometry relative="1" as="geometry" />
        </mxCell>
        <mxCell id="TJLMAPSp0Nu7winy3CZN-16" value="WebApp" style="pointerEvents=1;shadow=0;dashed=0;html=1;strokeColor=none;fillColor=#434445;aspect=fixed;labelPosition=center;verticalLabelPosition=bottom;verticalAlign=top;align=center;outlineConnect=0;shape=mxgraph.vvd.monitor;" parent="1" vertex="1">
          <mxGeometry x="240" y="300.875" width="73.39" height="68.25" as="geometry" />
        </mxCell>
        <mxCell id="TJLMAPSp0Nu7winy3CZN-18" value="Service Discovery" style="rounded=1;whiteSpace=wrap;html=1;sketch=1;curveFitting=1;jiggle=2;" parent="1" vertex="1">
          <mxGeometry x="420" y="460" width="120" height="60" as="geometry" />
        </mxCell>
        <mxCell id="TJLMAPSp0Nu7winy3CZN-19" value="Logistic.Api" style="rounded=1;whiteSpace=wrap;html=1;sketch=1;curveFitting=1;jiggle=2;fillColor=#fff2cc;strokeColor=#d6b656;" parent="1" vertex="1">
          <mxGeometry x="680" y="425" width="150" height="60" as="geometry" />
        </mxCell>
        <mxCell id="TJLMAPSp0Nu7winy3CZN-20" value="MySQL" style="shape=cylinder3;whiteSpace=wrap;html=1;boundedLbl=1;backgroundOutline=1;size=15;fillColor=#dae8fc;strokeColor=#6c8ebf;sketch=1;curveFitting=1;jiggle=2;" parent="1" vertex="1">
          <mxGeometry x="880" y="485" width="50" height="60" as="geometry" />
        </mxCell>
        <mxCell id="TJLMAPSp0Nu7winy3CZN-22" style="edgeStyle=orthogonalEdgeStyle;rounded=0;orthogonalLoop=1;jettySize=auto;html=1;entryX=0;entryY=0.5;entryDx=0;entryDy=0;entryPerimeter=0;exitX=0.5;exitY=1;exitDx=0;exitDy=0;" parent="1" source="TJLMAPSp0Nu7winy3CZN-5" target="TJLMAPSp0Nu7winy3CZN-6" edge="1">
          <mxGeometry relative="1" as="geometry">
            <Array as="points">
              <mxPoint x="755" y="275" />
            </Array>
          </mxGeometry>
        </mxCell>
        <mxCell id="TJLMAPSp0Nu7winy3CZN-23" style="edgeStyle=orthogonalEdgeStyle;rounded=0;orthogonalLoop=1;jettySize=auto;html=1;exitX=0.5;exitY=1;exitDx=0;exitDy=0;entryX=0;entryY=0.5;entryDx=0;entryDy=0;entryPerimeter=0;" parent="1" source="TJLMAPSp0Nu7winy3CZN-19" target="TJLMAPSp0Nu7winy3CZN-20" edge="1">
          <mxGeometry relative="1" as="geometry" />
        </mxCell>
        <mxCell id="TJLMAPSp0Nu7winy3CZN-24" style="edgeStyle=orthogonalEdgeStyle;rounded=0;orthogonalLoop=1;jettySize=auto;html=1;entryX=1.033;entryY=0.239;entryDx=0;entryDy=0;entryPerimeter=0;startArrow=classic;startFill=1;" parent="1" source="TJLMAPSp0Nu7winy3CZN-19" target="TJLMAPSp0Nu7winy3CZN-7" edge="1">
          <mxGeometry relative="1" as="geometry" />
        </mxCell>
        <mxCell id="TJLMAPSp0Nu7winy3CZN-25" style="edgeStyle=orthogonalEdgeStyle;rounded=0;orthogonalLoop=1;jettySize=auto;html=1;entryX=1.038;entryY=0.51;entryDx=0;entryDy=0;entryPerimeter=0;startArrow=classic;startFill=1;" parent="1" source="TJLMAPSp0Nu7winy3CZN-8" target="TJLMAPSp0Nu7winy3CZN-7" edge="1">
          <mxGeometry relative="1" as="geometry" />
        </mxCell>
        <mxCell id="TJLMAPSp0Nu7winy3CZN-26" style="rounded=0;orthogonalLoop=1;jettySize=auto;html=1;exitX=1;exitY=0.5;exitDx=0;exitDy=0;entryX=0;entryY=0.5;entryDx=0;entryDy=0;" parent="1" source="TJLMAPSp0Nu7winy3CZN-2" target="TJLMAPSp0Nu7winy3CZN-5" edge="1">
          <mxGeometry relative="1" as="geometry" />
        </mxCell>
        <mxCell id="TJLMAPSp0Nu7winy3CZN-27" style="rounded=0;orthogonalLoop=1;jettySize=auto;html=1;exitX=1;exitY=0.5;exitDx=0;exitDy=0;entryX=0;entryY=0.5;entryDx=0;entryDy=0;" parent="1" source="TJLMAPSp0Nu7winy3CZN-2" target="TJLMAPSp0Nu7winy3CZN-8" edge="1">
          <mxGeometry relative="1" as="geometry">
            <mxPoint x="570" y="345" as="sourcePoint" />
            <mxPoint x="690" y="200" as="targetPoint" />
          </mxGeometry>
        </mxCell>
        <mxCell id="TJLMAPSp0Nu7winy3CZN-28" style="rounded=0;orthogonalLoop=1;jettySize=auto;html=1;exitX=1;exitY=0.5;exitDx=0;exitDy=0;entryX=0;entryY=0.5;entryDx=0;entryDy=0;" parent="1" source="TJLMAPSp0Nu7winy3CZN-2" target="TJLMAPSp0Nu7winy3CZN-19" edge="1">
          <mxGeometry relative="1" as="geometry">
            <mxPoint x="570" y="345" as="sourcePoint" />
            <mxPoint x="690" y="320" as="targetPoint" />
          </mxGeometry>
        </mxCell>
      </root>
    </mxGraphModel>
  </diagram>
</mxfile>
